Vanilla Sky

A successful publisher finds his life taking a turn for the surreal after a car accident with a jaded lover.

Director: Cameron Crowe
With: Tom Cruise, Penélope Cruz and Cameron Diaz


An High Quality .mkv file
- Xvid 1.3.1 2011-03-24
- OGG Vorbis aoTuV b6.03 2011-02-27
- Dutch Subtitles Included (can be turned off ;) ).

----
Additional File Info:


General
Format                           : Matroska (MKV)
File size                        : 1.63 GiB
Duration                         : 2h 10mn
Overall bit rate                 : 1 794 Kbps

Video
ID                               : 1
Format                           : MPEG-4 Visual
Format profile                   : Advanced Simple@L5
Format settings, BVOP            : Yes
Format settings, QPel            : No
Format settings, GMC             : No warppoints
Format settings, Matrix          : Default (H.263)
Codec ID                         : XVID
Codec ID/Hint                    : XviD
Duration                         : 2h 10mn
Bit rate                         : 1 639 Kbps
Width                            : 720 pixels
Height                           : 400 pixels
Display aspect ratio             : 16:9
Frame rate                       : 25.000 fps
Color space                      : YUV
Chroma subsampling               : 4:2:0
Bit depth                        : 8 bits
Scan type                        : Progressive
Compression mode                 : Lossy
Bits/(Pixel*Frame)               : 0.228
Stream size                      : 1.49 GiB (91%)
Title                            : Video
Writing library                  : XviD 63

Audio
ID                               : 2
Format                           : Vorbis
Format settings, Floor           : 1
Codec ID                         : A_VORBIS
Duration                         : 2h 10mn
Bit rate mode                    : Constant
Bit rate                         : 120 Kbps
Channel(s)                       : 2 channels
Sampling rate                    : 48.0 KHz
Compression mode                 : Lossy
Stream size                      : 112 MiB (7%)
Title                            : Audio
Writing library                  : aoTuV 20110227 (UTC 2011-02-27)
Language                         : English

Text
ID                               : 3
Format                           : UTF-8
Codec ID                         : S_TEXT/UTF8
Codec ID/Info                    : UTF-8 Plain Text
Title                            : Subtitles
Language                         : Dutch
